# xmcd
#
# Track frame offsets:
#	150
#	20010
#	37840
#	53640
#	73577
#	89528
#	115940
#	126955
#	146626
#	162334
#	187355
#	203023
#	226491
#	237590
#	254578
#
# Disc length: 3756 seconds
# Revision: 2
# Processed by: cddbd v1.5.2PL0 Copyright (c) Steve Scherf et al.
# Submitted via: dBpowerAMP V12.0
#
DISCID=df0eaa0f
DTITLE=Various Artist - The Blues Magazine 22 Hit The Highway
DYEAR=2015
DGENRE=Blues
TTITLE0=Samantha Fish - Highways Holding Me Now
TTITLE1=Sonny Landreth - The High Side
TTITLE2=The Kentucky Headhunters With Johnnie Johnson - Walking With The Wolf
TTITLE3=Royal Southern Brotherhood - Hard Blues
TTITLE4=Micke Björklöf and BlueStrip - Rain In Jerusalem
TTITLE5=Charlotte Marshall and The 45s - Big Easy Blues
TTITLE6=Ben Guitar Carr - Everybody Needs Good Times
TTITLE7=Rainbreakers - Ain't Nothin' Goin' On
TTITLE8=Jack J Hutchinson - Look In The Mirror
TTITLE9=Keith Thompson Band - Crazy
TTITLE10=The Picturebooks - Your Kisses Burn Like Fire
TTITLE11=Zoe Schwarz Blue Commotion - Say It Isn't So Easy [Live]
TTITLE12=Sleepy Eyes Nelson - Unemployment Blues
TTITLE13=The Voodoo Sheiks - The Thrill Ain't Gone
TTITLE14=Matt Edwards - Behind The Wall
EXTD=
EXTT0=
EXTT1=
EXTT2=
EXTT3=
EXTT4=
EXTT5=
EXTT6=
EXTT7=
EXTT8=
EXTT9=
EXTT10=
EXTT11=
EXTT12=
EXTT13=
EXTT14=
PLAYORDER=
